HIERARCHY
ROOT Hips
{
  OFFSET -210.995 92.7652 197.211
  CHANNELS 6 Xposition Yposition Zposition Zrotation Xrotation Yrotation
  JOINT ToSpine
  {
    OFFSET -0.0105055 1.38907 -7.13956
    CHANNELS 3 Zrotation Xrotation Yrotation
    JOINT Spine
    {
      OFFSET 0.0105055 10 1
      CHANNELS 3 Zrotation Xrotation Yrotation
      JOINT Spine1
      {
        OFFSET 0 12 1.60637
        CHANNELS 3 Zrotation Xrotation Yrotation
        JOINT Neck
        {
          OFFSET 0 27 2.26658
          CHANNELS 3 Zrotation Xrotation Yrotation
          JOINT Head
          {
            OFFSET 0 9 2.12705
            CHANNELS 3 Zrotation Xrotation Yrotation
            End Site
            {
              OFFSET 0 11 2
            }
          }
        }
        JOINT LeftShoulder
        {
          OFFSET 8 19.6109 2.86452
          CHANNELS 3 Zrotation Xrotation Yrotation
          JOINT LeftArm
          {
            OFFSET 12 1 0.681055
            CHANNELS 3 Zrotation Xrotation Yrotation
            JOINT LeftForeArm
            {
              OFFSET 19 0 -1.52608
              CHANNELS 3 Zrotation Xrotation Yrotation
              JOINT LeftHand
              {
                OFFSET 23 0 0
                CHANNELS 3 Zrotation Xrotation Yrotation
                End Site
                {
                  OFFSET 10 0 0
                }
              }
            }
          }
        }
        JOINT RightShoulder
        {
          OFFSET -8 19.6109 2.86452
          CHANNELS 3 Zrotation Xrotation Yrotation
          JOINT RightArm
          {
            OFFSET -12 1 0.681055
            CHANNELS 3 Zrotation Xrotation Yrotation
            JOINT RightForeArm
            {
              OFFSET -19 0 -1.52608
              CHANNELS 3 Zrotation Xrotation Yrotation
              JOINT RightHand
              {
                OFFSET -23 0 0
                CHANNELS 3 Zrotation Xrotation Yrotation
                End Site
                {
                  OFFSET -10 0 0
                }
              }
            }
          }
        }
      }
    }
  }
  JOINT LeftUpLeg
  {
    OFFSET 9 -7.17245 0
    CHANNELS 3 Zrotation Xrotation Yrotation
    JOINT LeftLeg
    {
      OFFSET 0 -44.1113 0
      CHANNELS 3 Zrotation Xrotation Yrotation
      JOINT LeftFoot
      {
        OFFSET 0 -36.1829 0
        CHANNELS 3 Zrotation Xrotation Yrotation
        JOINT LeftToeBase
        {
          OFFSET 0 -4.84184 13
          CHANNELS 3 Zrotation Xrotation Yrotation
          End Site
          {
            OFFSET 0 1 6
          }
        }
      }
    }
  }
  JOINT RightUpLeg
  {
    OFFSET -9 -7.17245 0
    CHANNELS 3 Zrotation Xrotation Yrotation
    JOINT RightLeg
    {
      OFFSET 0 -44.0551 0
      CHANNELS 3 Zrotation Xrotation Yrotation
      JOINT RightFoot
      {
        OFFSET 0 -36.1469 0
        CHANNELS 3 Zrotation Xrotation Yrotation
        JOINT RightToeBase
        {
          OFFSET 0 -4.92256 13
          CHANNELS 3 Zrotation Xrotation Yrotation
          End Site
          {
            OFFSET 0 1 6
          }
        }
      }
    }
  }
}
MOTION
Frames:	6
Frame Time:	0.0333333
28.5889 86.8857 -50.8035 -51.4555 19.2399 77.9943 0 0 0 17.0374 54.1582 -5.34829 -2.03195 -11.0921 4.39253 26.0612 -2.67223 -6.16483 -16.1143 -15.5793 2.6911 4.60483 1.33855 -26.1514 -30.1366 -22.3033 -94.5892 1.64394 12.4593 4.6981 -5.08888 0.180116 -4.05151 17.4058 7.21885 25.8703 -12.4518 -22.7556 42.6218 3.79511 -31.7682 0.985402 4.66531 0.399426 9.78169 74.2931 -78.8911 105.407 1.14794e-007 53.7908 -24.6567 18.0113 -16.0389 2.55825 0.670221 3.00035 -3.27578 -128.105 -84.7282 -126.851 6.94999e-007 49.6798 38.9127 -11.2827 -6.94887 -0.687239 2.07822 -6.56526 -4.84104 
28.4126 86.4619 -50.6793 -51.2176 18.7945 78.1395 0 0 0 17.2284 54.8261 -5.41752 -1.87264 -11.934 4.4979 28.1075 -1.60277 -6.76564 -17.5337 -16.5205 2.92383 5.31094 1.1459 -26.0177 -33.1005 -21.1013 -95.3129 2.05547 13.7854 4.69038 -3.64239 0.117842 -3.70483 17.9489 7.35512 25.8173 -12.7724 -22.3249 41.7181 4.12963 -34.1835 1.33226 5.75595 0.515312 10.2232 76.7697 -78.7219 107.527 7.66957e-007 55.0713 -24.6517 18.2644 -16.2429 2.62823 0.659413 2.21908 -3.12026 -129.409 -84.3069 -129.126 4.97713e-008 50.9984 39.1023 -12.7368 -7.12546 -0.796286 2.12328 -6.74823 -4.9037 
28.1859 86.1698 -50.5602 -50.9235 18.0871 78.1437 0 0 0 17.3297 54.8903 -5.25378 -1.20154 -11.2262 4.58016 28.0015 -2.30861 -6.77773 -17.4868 -15.8571 2.81036 6.60425 0.760666 -24.4635 -36.894 -19.6428 -97.0215 2.88355 15.8428 3.51979 -3.52749 0.107874 -3.5021 18.0894 7.48747 26.1729 -14.3519 -21.877 41.3762 4.05527 -37.3491 0.283835 7.13232 0.580403 9.29267 78.6664 -78.4302 108.736 -1.93064e-006 56.0617 -24.632 18.4311 -16.4844 2.69259 0.667613 2.09762 -3.13397 -127.574 -83.8675 -128.987 -2.01912e-006 51.9833 39.819 -12.4248 -7.219 -0.786847 2.54573 -8.98887 -3.18553 
28.0536 85.718 -50.4846 -50.5263 17.725 78.2771 0 0 0 16.2656 55.1185 -4.53692 0.400894 -11.0567 4.64507 27.0748 -2.55262 -6.6058 -16.8181 -15.162 2.69577 7.62951 0.475835 -22.8948 -40.7305 -17.9664 -98.0774 3.85419 17.8535 1.96213 -3.76361 0.118064 -3.59225 16.1372 6.93314 26.1318 -13.1106 -21.0256 41.8173 3.74546 -37.8543 -0.658018 6.12737 0.538434 10.0343 80.4646 -78.1598 110.404 1.5372e-006 57.5259 -24.8591 18.7005 -16.9567 2.81203 0.752774 2.55115 -3.52942 -125.549 -83.3106 -128.53 1.86271e-006 53.3954 40.6244 -15.5376 -5.62632 -0.768196 3.40323 -12.3995 -5.41212 
27.9116 85.356 -50.3227 -50.1511 16.8144 78.2 0 0 0 15.7733 55.1174 -3.9808 0.951814 -10.5861 4.74832 29.961 -2.73315 -6.95019 -18.8859 -15.8218 3.2428 9.82887 -0.0389962 -22.2338 -44.6408 -16.4621 -98.3883 4.89195 20.1982 0.671857 -3.65636 0.111914 -3.50515 16.6379 6.94804 25.6328 -13.1111 -20.5175 42.5319 3.88735 -39.8634 -1.03291 6.72755 0.569286 9.66273 82.1638 -77.5859 111.388 9.85219e-007 58.8238 -25.1654 19.0657 -17.5908 2.97683 0.67857 3.37536 -3.35956 -128.787 -83.1165 -131.082 -1.81657e-007 55.0511 40.9995 -6.61605 -12.4017 -0.719622 0.72487 0.401183 -6.27329 
27.8106 84.8941 -50.1255 -49.3471 15.7328 78.5416 0 0 0 16.2114 55.5642 -4.01962 1.66238 -10.3648 5.1803 30.1206 -4.48494 -6.97409 -18.8399 -13.8951 3.12948 11.1649 -0.338333 -21.8073 -47.6176 -14.9475 -99.2503 5.55381 21.0531 0.106755 -3.40495 0.0981451 -3.30114 15.6697 6.48055 24.7797 -11.8795 -20.0795 43.1835 3.74804 -41.4863 -1.39785 6.53433 0.533561 9.32625 82.1047 -77.3475 110.654 -1.56267e-006 60.3823 -25.6757 19.6642 -17.8206 3.1128 0.615558 2.60908 -3.00946 -123.893 -83.0355 -127.276 -8.54582e-007 56.8135 40.3841 -9.34386 -12.0677 -0.989833 1.1198 -1.74773 -5.82721 
